<svg width="25" height="24" viewBox="0 0 25 24" fill="none" xmlns="http://www.w3.org/2000/svg">
<g id="Frame">
<path id="Vector" d="M22.2875 10.7334L8.78 2.47029C8.55227 2.33084 8.29144 2.25471 8.02445 2.24977C7.75746 2.24482 7.49399 2.31124 7.26125 2.44217C7.03073 2.57106 6.8387 2.75902 6.7049 2.98673C6.57111 3.21445 6.50039 3.47368 6.5 3.73779V20.2622C6.50174 20.6583 6.66072 21.0376 6.942 21.3166C7.22328 21.5956 7.60383 21.7515 8 21.75C8.27652 21.7499 8.54767 21.6736 8.78375 21.5297L22.2875 13.2665C22.5046 13.1342 22.684 12.9483 22.8084 12.7267C22.9329 12.5051 22.9983 12.2551 22.9983 12.0009C22.9983 11.7467 22.9329 11.4968 22.8084 11.2751C22.684 11.0535 22.5046 10.8676 22.2875 10.7353V10.7334ZM8 20.2444V3.74998L21.4841 12L8 20.2444Z" fill="white"/>
</g>
</svg>
